<?xml version="1.0"?>
<svg xmlns="http://www.w3.org/2000/svg" width="24" height="23.981" viewBox="0 0 24 23.981">
  <path id="Path_164" d="M17.967.2H6.014A6.027,6.027,0,0,0,0,6.214V18.186a6.023,6.023,0,0,0,6.014,6H17.986A6.027,6.027,0,0,0,24,18.167V6.214A6.056,6.056,0,0,0,17.967.2Zm-.019,8.983v.4a8.6,8.6,0,0,1-8.736,8.6,8.762,8.762,0,0,1-4.7-1.351c.247.019.476.038.723.038A6.13,6.13,0,0,0,9.04,15.578a3.067,3.067,0,0,1-2.874-2.094,2.9,2.9,0,0,0,.571.057,2.835,2.835,0,0,0,.818-.114,3.042,3.042,0,0,1-2.417-2.969V10.42a2.944,2.944,0,0,0,1.37.381,2.985,2.985,0,0,1-.952-4.035,8.793,8.793,0,0,0,6.319,3.159A2.8,2.8,0,0,1,11.8,9.24a3.042,3.042,0,0,1,3.064-3.026,3.119,3.119,0,0,1,2.246.952,5.714,5.714,0,0,0,1.941-.742A3.1,3.1,0,0,1,17.7,8.1a6.081,6.081,0,0,0,1.77-.476A6.25,6.25,0,0,1,17.948,9.183Z" transform="translate(0 -0.2)" fill="#08a0e9"/>
</svg>
